@startuml

!define table(x) class x << (T,#FFAAAA) >>
!define primary_key(x) <u>x</u>
hide methods
hide stereotypes
table(FOO1) {
  primary_key(FIELD1)
  FIELD2
}


abstract class AbstractList
abstract AbstractCollection
interface List
interface Collection

List <|-- AbstractList
Collection <|-- AbstractCollection

Collection <|- List
AbstractCollection <|- AbstractList
AbstractList <|-- ArrayList

class ArrayList {
Object[] elementData
size()
}

enum TimeUnit {
DAYS
HOURS
MINUTES
}

@enduml